<mxfile host="app.diagrams.net" modified="2024-04-26T18:26:20.588Z" agent="Mozilla/5.0 (Windows NT 10.0; Win64; x64) AppleWebKit/537.36 (KHTML, like Gecko) Chrome/124.0.0.0 Safari/537.36" etag="iUoZu675bHgchGlGwJf8" version="24.2.3" type="device">
  <diagram name="Page-1" id="lQPwQOak9GEUOolHe1Ao">
    <mxGraphModel dx="1973" dy="790" grid="1" gridSize="10" guides="1" tooltips="1" connect="1" arrows="1" fold="1" page="1" pageScale="1" pageWidth="1169" pageHeight="827" math="0" shadow="0">
      <root>
        <mxCell id="0" />
        <mxCell id="1" parent="0" />
        <mxCell id="5xEN8Zvacd1QNbbgDomi-9" value="AWS Cloud" style="sketch=0;outlineConnect=0;gradientColor=none;html=1;whiteSpace=wrap;fontSize=12;fontStyle=0;shape=mxgraph.aws4.group;grIcon=mxgraph.aws4.group_aws_cloud;strokeColor=#AAB7B8;fillColor=none;verticalAlign=top;align=left;spacingLeft=30;fontColor=#AAB7B8;dashed=0;" parent="1" vertex="1">
          <mxGeometry x="50" y="830" width="1190" height="790" as="geometry" />
        </mxCell>
        <mxCell id="cpXsW3RKIQvox0g9FcWc-8" value="VPC" style="sketch=0;outlineConnect=0;gradientColor=none;html=1;whiteSpace=wrap;fontSize=12;fontStyle=0;shape=mxgraph.aws4.group;grIcon=mxgraph.aws4.group_vpc;strokeColor=#879196;fillColor=none;verticalAlign=top;align=left;spacingLeft=30;fontColor=#879196;dashed=0;" parent="1" vertex="1">
          <mxGeometry x="70" y="860" width="1150" height="740" as="geometry" />
        </mxCell>
        <mxCell id="5xEN8Zvacd1QNbbgDomi-26" value="Availability Zone" style="fillColor=none;strokeColor=#147EBA;dashed=1;verticalAlign=top;fontStyle=0;fontColor=#147EBA;whiteSpace=wrap;html=1;" parent="1" vertex="1">
          <mxGeometry x="474" y="910" width="280" height="670" as="geometry" />
        </mxCell>
        <mxCell id="5xEN8Zvacd1QNbbgDomi-11" value="Availability Zone" style="fillColor=none;strokeColor=#147EBA;dashed=1;verticalAlign=top;fontStyle=0;fontColor=#147EBA;whiteSpace=wrap;html=1;" parent="1" vertex="1">
          <mxGeometry x="160" y="910" width="280" height="670" as="geometry" />
        </mxCell>
        <mxCell id="AOdpXRaZCRNr0EuxbCJd-35" style="edgeStyle=orthogonalEdgeStyle;rounded=0;orthogonalLoop=1;jettySize=auto;html=1;" edge="1" parent="1" source="5xEN8Zvacd1QNbbgDomi-4" target="AOdpXRaZCRNr0EuxbCJd-4">
          <mxGeometry relative="1" as="geometry" />
        </mxCell>
        <mxCell id="5xEN8Zvacd1QNbbgDomi-4" value="" style="rounded=1;arcSize=10;dashed=1;fillColor=none;gradientColor=none;dashPattern=8 3 1 3;strokeWidth=2;strokeColor=#000000;" parent="1" vertex="1">
          <mxGeometry x="80" y="1140" width="1020" height="230" as="geometry" />
        </mxCell>
        <mxCell id="5xEN8Zvacd1QNbbgDomi-10" value="Public subnet" style="points=[[0,0],[0.25,0],[0.5,0],[0.75,0],[1,0],[1,0.25],[1,0.5],[1,0.75],[1,1],[0.75,1],[0.5,1],[0.25,1],[0,1],[0,0.75],[0,0.5],[0,0.25]];outlineConnect=0;gradientColor=none;html=1;whiteSpace=wrap;fontSize=12;fontStyle=0;container=1;pointerEvents=0;collapsible=0;recursiveResize=0;shape=mxgraph.aws4.group;grIcon=mxgraph.aws4.group_security_group;grStroke=0;strokeColor=#7AA116;fillColor=#F2F6E8;verticalAlign=top;align=left;spacingLeft=30;fontColor=#248814;dashed=0;" parent="1" vertex="1">
          <mxGeometry x="185" y="940" width="230" height="150" as="geometry" />
        </mxCell>
        <mxCell id="cpXsW3RKIQvox0g9FcWc-4" value="Private subnet" style="points=[[0,0],[0.25,0],[0.5,0],[0.75,0],[1,0],[1,0.25],[1,0.5],[1,0.75],[1,1],[0.75,1],[0.5,1],[0.25,1],[0,1],[0,0.75],[0,0.5],[0,0.25]];outlineConnect=0;gradientColor=none;html=1;whiteSpace=wrap;fontSize=12;fontStyle=0;container=1;pointerEvents=0;collapsible=0;recursiveResize=0;shape=mxgraph.aws4.group;grIcon=mxgraph.aws4.group_security_group;grStroke=0;strokeColor=#00A4A6;fillColor=#E6F6F7;verticalAlign=top;align=left;spacingLeft=30;fontColor=#147EBA;dashed=0;" parent="1" vertex="1">
          <mxGeometry x="185" y="1190" width="230" height="150" as="geometry" />
        </mxCell>
        <mxCell id="AOdpXRaZCRNr0EuxbCJd-33" style="edgeStyle=orthogonalEdgeStyle;rounded=0;orthogonalLoop=1;jettySize=auto;html=1;endArrow=baseDash;endFill=0;" edge="1" parent="cpXsW3RKIQvox0g9FcWc-4" source="5xEN8Zvacd1QNbbgDomi-13">
          <mxGeometry relative="1" as="geometry">
            <mxPoint x="434.9999999999998" y="159.99999999999977" as="targetPoint" />
            <Array as="points">
              <mxPoint x="115" y="160" />
            </Array>
          </mxGeometry>
        </mxCell>
        <mxCell id="5xEN8Zvacd1QNbbgDomi-13" value="&lt;span style=&quot;background-color: rgb(226, 242, 243);&quot;&gt;EC2 App Server&lt;/span&gt;" style="sketch=0;points=[[0,0,0],[0.25,0,0],[0.5,0,0],[0.75,0,0],[1,0,0],[0,1,0],[0.25,1,0],[0.5,1,0],[0.75,1,0],[1,1,0],[0,0.25,0],[0,0.5,0],[0,0.75,0],[1,0.25,0],[1,0.5,0],[1,0.75,0]];outlineConnect=0;fontColor=#232F3E;fillColor=#ED7100;strokeColor=#ffffff;dashed=0;verticalLabelPosition=bottom;verticalAlign=top;align=center;html=1;fontSize=12;fontStyle=0;aspect=fixed;shape=mxgraph.aws4.resourceIcon;resIcon=mxgraph.aws4.ec2;" parent="cpXsW3RKIQvox0g9FcWc-4" vertex="1">
          <mxGeometry x="76" y="44" width="78" height="78" as="geometry" />
        </mxCell>
        <mxCell id="5xEN8Zvacd1QNbbgDomi-27" value="Public subnet" style="points=[[0,0],[0.25,0],[0.5,0],[0.75,0],[1,0],[1,0.25],[1,0.5],[1,0.75],[1,1],[0.75,1],[0.5,1],[0.25,1],[0,1],[0,0.75],[0,0.5],[0,0.25]];outlineConnect=0;gradientColor=none;html=1;whiteSpace=wrap;fontSize=12;fontStyle=0;container=1;pointerEvents=0;collapsible=0;recursiveResize=0;shape=mxgraph.aws4.group;grIcon=mxgraph.aws4.group_security_group;grStroke=0;strokeColor=#7AA116;fillColor=#F2F6E8;verticalAlign=top;align=left;spacingLeft=30;fontColor=#248814;dashed=0;" parent="1" vertex="1">
          <mxGeometry x="505" y="940" width="230" height="150" as="geometry" />
        </mxCell>
        <mxCell id="5xEN8Zvacd1QNbbgDomi-31" value="Availability Zone" style="fillColor=none;strokeColor=#147EBA;dashed=1;verticalAlign=top;fontStyle=0;fontColor=#147EBA;whiteSpace=wrap;html=1;" parent="1" vertex="1">
          <mxGeometry x="800" y="910" width="280" height="670" as="geometry" />
        </mxCell>
        <mxCell id="5xEN8Zvacd1QNbbgDomi-32" value="Public subnet" style="points=[[0,0],[0.25,0],[0.5,0],[0.75,0],[1,0],[1,0.25],[1,0.5],[1,0.75],[1,1],[0.75,1],[0.5,1],[0.25,1],[0,1],[0,0.75],[0,0.5],[0,0.25]];outlineConnect=0;gradientColor=none;html=1;whiteSpace=wrap;fontSize=12;fontStyle=0;container=1;pointerEvents=0;collapsible=0;recursiveResize=0;shape=mxgraph.aws4.group;grIcon=mxgraph.aws4.group_security_group;grStroke=0;strokeColor=#7AA116;fillColor=#F2F6E8;verticalAlign=top;align=left;spacingLeft=30;fontColor=#248814;dashed=0;" parent="1" vertex="1">
          <mxGeometry x="825" y="940" width="230" height="150" as="geometry" />
        </mxCell>
        <mxCell id="5xEN8Zvacd1QNbbgDomi-33" value="Private subnet" style="points=[[0,0],[0.25,0],[0.5,0],[0.75,0],[1,0],[1,0.25],[1,0.5],[1,0.75],[1,1],[0.75,1],[0.5,1],[0.25,1],[0,1],[0,0.75],[0,0.5],[0,0.25]];outlineConnect=0;gradientColor=none;html=1;whiteSpace=wrap;fontSize=12;fontStyle=0;container=0;pointerEvents=0;collapsible=0;recursiveResize=0;shape=mxgraph.aws4.group;grIcon=mxgraph.aws4.group_security_group;grStroke=0;strokeColor=#00A4A6;fillColor=#E6F6F7;verticalAlign=top;align=left;spacingLeft=30;fontColor=#147EBA;dashed=0;" parent="1" vertex="1">
          <mxGeometry x="825" y="1190" width="230" height="150" as="geometry" />
        </mxCell>
        <mxCell id="5xEN8Zvacd1QNbbgDomi-37" value="Auto&lt;div&gt;Scaling&lt;/div&gt;&lt;div&gt;Group&lt;/div&gt;" style="sketch=0;outlineConnect=0;fontColor=#232F3E;gradientColor=none;fillColor=#ED7100;strokeColor=none;dashed=0;verticalLabelPosition=bottom;verticalAlign=top;align=center;html=1;fontSize=12;fontStyle=0;aspect=fixed;pointerEvents=1;shape=mxgraph.aws4.auto_scaling2;" parent="1" vertex="1">
          <mxGeometry x="100" y="1150" width="48" height="48" as="geometry" />
        </mxCell>
        <mxCell id="5xEN8Zvacd1QNbbgDomi-40" style="edgeStyle=orthogonalEdgeStyle;rounded=0;orthogonalLoop=1;jettySize=auto;html=1;entryX=0.5;entryY=1;entryDx=0;entryDy=0;entryPerimeter=0;" parent="1" source="5xEN8Zvacd1QNbbgDomi-13" target="5xEN8Zvacd1QNbbgDomi-12" edge="1">
          <mxGeometry relative="1" as="geometry" />
        </mxCell>
        <mxCell id="5xEN8Zvacd1QNbbgDomi-43" value="OS Updates, etc" style="edgeLabel;html=1;align=center;verticalAlign=middle;resizable=0;points=[];" parent="5xEN8Zvacd1QNbbgDomi-40" vertex="1" connectable="0">
          <mxGeometry x="0.3947" y="-3" relative="1" as="geometry">
            <mxPoint as="offset" />
          </mxGeometry>
        </mxCell>
        <mxCell id="5xEN8Zvacd1QNbbgDomi-42" style="edgeStyle=orthogonalEdgeStyle;rounded=0;orthogonalLoop=1;jettySize=auto;html=1;entryX=0.5;entryY=1;entryDx=0;entryDy=0;entryPerimeter=0;" parent="1" source="5xEN8Zvacd1QNbbgDomi-34" target="5xEN8Zvacd1QNbbgDomi-35" edge="1">
          <mxGeometry relative="1" as="geometry" />
        </mxCell>
        <mxCell id="5xEN8Zvacd1QNbbgDomi-61" value="OS Updates, etc" style="edgeLabel;html=1;align=center;verticalAlign=middle;resizable=0;points=[];" parent="5xEN8Zvacd1QNbbgDomi-42" vertex="1" connectable="0">
          <mxGeometry x="0.326" y="2" relative="1" as="geometry">
            <mxPoint as="offset" />
          </mxGeometry>
        </mxCell>
        <mxCell id="5xEN8Zvacd1QNbbgDomi-69" style="edgeStyle=orthogonalEdgeStyle;rounded=0;orthogonalLoop=1;jettySize=auto;html=1;entryX=0.5;entryY=1;entryDx=0;entryDy=0;" parent="1" source="5xEN8Zvacd1QNbbgDomi-12" target="5xEN8Zvacd1QNbbgDomi-66" edge="1">
          <mxGeometry relative="1" as="geometry">
            <Array as="points">
              <mxPoint x="300" y="880" />
              <mxPoint x="620" y="880" />
            </Array>
          </mxGeometry>
        </mxCell>
        <mxCell id="5xEN8Zvacd1QNbbgDomi-12" value="&lt;span style=&quot;background-color: rgb(255, 255, 255);&quot;&gt;Nat Gateway&lt;/span&gt;" style="outlineConnect=0;dashed=0;verticalLabelPosition=bottom;verticalAlign=top;align=center;html=1;shape=mxgraph.aws3.vpc_nat_gateway;fillColor=#F58536;gradientColor=none;" parent="1" vertex="1">
          <mxGeometry x="265.5" y="979" width="69" height="72" as="geometry" />
        </mxCell>
        <mxCell id="5xEN8Zvacd1QNbbgDomi-70" style="edgeStyle=orthogonalEdgeStyle;rounded=0;orthogonalLoop=1;jettySize=auto;html=1;entryX=0.5;entryY=1;entryDx=0;entryDy=0;" parent="1" source="5xEN8Zvacd1QNbbgDomi-35" target="5xEN8Zvacd1QNbbgDomi-66" edge="1">
          <mxGeometry relative="1" as="geometry">
            <Array as="points">
              <mxPoint x="940" y="880" />
              <mxPoint x="620" y="880" />
            </Array>
          </mxGeometry>
        </mxCell>
        <mxCell id="5xEN8Zvacd1QNbbgDomi-35" value="&lt;span style=&quot;background-color: rgb(255, 255, 255);&quot;&gt;Nat Gateway&lt;/span&gt;" style="outlineConnect=0;dashed=0;verticalLabelPosition=bottom;verticalAlign=top;align=center;html=1;shape=mxgraph.aws3.vpc_nat_gateway;fillColor=#F58536;gradientColor=none;" parent="1" vertex="1">
          <mxGeometry x="905.5" y="979" width="69" height="72" as="geometry" />
        </mxCell>
        <mxCell id="5xEN8Zvacd1QNbbgDomi-57" style="edgeStyle=orthogonalEdgeStyle;rounded=0;orthogonalLoop=1;jettySize=auto;html=1;entryX=0.5;entryY=1;entryDx=0;entryDy=0;entryPerimeter=0;" parent="1" source="5xEN8Zvacd1QNbbgDomi-29" edge="1">
          <mxGeometry relative="1" as="geometry">
            <mxPoint x="620" y="1051" as="targetPoint" />
          </mxGeometry>
        </mxCell>
        <mxCell id="5xEN8Zvacd1QNbbgDomi-60" value="OS Updates, etc" style="edgeLabel;html=1;align=center;verticalAlign=middle;resizable=0;points=[];" parent="5xEN8Zvacd1QNbbgDomi-57" vertex="1" connectable="0">
          <mxGeometry x="0.4298" y="1" relative="1" as="geometry">
            <mxPoint as="offset" />
          </mxGeometry>
        </mxCell>
        <mxCell id="5xEN8Zvacd1QNbbgDomi-68" style="edgeStyle=orthogonalEdgeStyle;rounded=0;orthogonalLoop=1;jettySize=auto;html=1;entryX=0.5;entryY=1;entryDx=0;entryDy=0;" parent="1" source="5xEN8Zvacd1QNbbgDomi-58" target="5xEN8Zvacd1QNbbgDomi-66" edge="1">
          <mxGeometry relative="1" as="geometry" />
        </mxCell>
        <mxCell id="5xEN8Zvacd1QNbbgDomi-58" value="&lt;span style=&quot;background-color: rgb(255, 255, 255);&quot;&gt;Nat Gateway&lt;/span&gt;" style="outlineConnect=0;dashed=0;verticalLabelPosition=bottom;verticalAlign=top;align=center;html=1;shape=mxgraph.aws3.vpc_nat_gateway;fillColor=#F58536;gradientColor=none;" parent="1" vertex="1">
          <mxGeometry x="585.5" y="979" width="69" height="72" as="geometry" />
        </mxCell>
        <mxCell id="5xEN8Zvacd1QNbbgDomi-64" value="Users" style="outlineConnect=0;dashed=0;verticalLabelPosition=bottom;verticalAlign=top;align=center;html=1;shape=mxgraph.aws3.users;fillColor=#D2D3D3;gradientColor=none;" parent="1" vertex="1">
          <mxGeometry x="1280" y="1223.5" width="66" height="63" as="geometry" />
        </mxCell>
        <mxCell id="5xEN8Zvacd1QNbbgDomi-66" value="Internet" style="image;perimeter=ellipsePerimeter;html=1;align=center;shadow=0;dashed=0;spacingTop=3;image=img/lib/active_directory/internet_cloud.svg;" parent="1" vertex="1">
          <mxGeometry x="511.25" y="660" width="217.5" height="137.03" as="geometry" />
        </mxCell>
        <mxCell id="5xEN8Zvacd1QNbbgDomi-71" value="AWS Cloud" style="sketch=0;outlineConnect=0;gradientColor=none;html=1;whiteSpace=wrap;fontSize=12;fontStyle=0;shape=mxgraph.aws4.group;grIcon=mxgraph.aws4.group_aws_cloud;strokeColor=#AAB7B8;fillColor=none;verticalAlign=top;align=left;spacingLeft=30;fontColor=#AAB7B8;dashed=0;" parent="1" vertex="1">
          <mxGeometry x="1410" y="824" width="1190" height="700" as="geometry" />
        </mxCell>
        <mxCell id="AOdpXRaZCRNr0EuxbCJd-4" value="Load Balancer" style="image;aspect=fixed;html=1;points=[];align=center;fontSize=12;image=img/lib/azure2/networking/Application_Gateways.svg;" vertex="1" parent="1">
          <mxGeometry x="1130" y="1218" width="74" height="74" as="geometry" />
        </mxCell>
        <mxCell id="AOdpXRaZCRNr0EuxbCJd-11" value="" style="group" vertex="1" connectable="0" parent="1">
          <mxGeometry x="185" y="1400" width="230" height="160" as="geometry" />
        </mxCell>
        <mxCell id="AOdpXRaZCRNr0EuxbCJd-7" value="Private subnet" style="points=[[0,0],[0.25,0],[0.5,0],[0.75,0],[1,0],[1,0.25],[1,0.5],[1,0.75],[1,1],[0.75,1],[0.5,1],[0.25,1],[0,1],[0,0.75],[0,0.5],[0,0.25]];outlineConnect=0;gradientColor=none;html=1;whiteSpace=wrap;fontSize=12;fontStyle=0;container=1;pointerEvents=0;collapsible=0;recursiveResize=0;shape=mxgraph.aws4.group;grIcon=mxgraph.aws4.group_security_group;grStroke=0;strokeColor=#00A4A6;fillColor=#E6F6F7;verticalAlign=top;align=left;spacingLeft=30;fontColor=#147EBA;dashed=0;" vertex="1" parent="AOdpXRaZCRNr0EuxbCJd-11">
          <mxGeometry width="230" height="160" as="geometry" />
        </mxCell>
        <mxCell id="AOdpXRaZCRNr0EuxbCJd-10" value="RDS Database&lt;div&gt;(Secondary)&lt;/div&gt;" style="sketch=0;points=[[0,0,0],[0.25,0,0],[0.5,0,0],[0.75,0,0],[1,0,0],[0,1,0],[0.25,1,0],[0.5,1,0],[0.75,1,0],[1,1,0],[0,0.25,0],[0,0.5,0],[0,0.75,0],[1,0.25,0],[1,0.5,0],[1,0.75,0]];outlineConnect=0;fontColor=#232F3E;fillColor=#C925D1;strokeColor=#ffffff;dashed=0;verticalLabelPosition=bottom;verticalAlign=top;align=center;html=1;fontSize=12;fontStyle=0;aspect=fixed;shape=mxgraph.aws4.resourceIcon;resIcon=mxgraph.aws4.rds;" vertex="1" parent="AOdpXRaZCRNr0EuxbCJd-11">
          <mxGeometry x="71.5" y="38.4" width="78" height="78" as="geometry" />
        </mxCell>
        <mxCell id="AOdpXRaZCRNr0EuxbCJd-12" value="" style="group" vertex="1" connectable="0" parent="1">
          <mxGeometry x="510" y="1400" width="230" height="160" as="geometry" />
        </mxCell>
        <mxCell id="AOdpXRaZCRNr0EuxbCJd-13" value="Private subnet" style="points=[[0,0],[0.25,0],[0.5,0],[0.75,0],[1,0],[1,0.25],[1,0.5],[1,0.75],[1,1],[0.75,1],[0.5,1],[0.25,1],[0,1],[0,0.75],[0,0.5],[0,0.25]];outlineConnect=0;gradientColor=none;html=1;whiteSpace=wrap;fontSize=12;fontStyle=0;container=1;pointerEvents=0;collapsible=0;recursiveResize=0;shape=mxgraph.aws4.group;grIcon=mxgraph.aws4.group_security_group;grStroke=0;strokeColor=#00A4A6;fillColor=#E6F6F7;verticalAlign=top;align=left;spacingLeft=30;fontColor=#147EBA;dashed=0;" vertex="1" parent="AOdpXRaZCRNr0EuxbCJd-12">
          <mxGeometry width="230" height="160" as="geometry" />
        </mxCell>
        <mxCell id="AOdpXRaZCRNr0EuxbCJd-14" value="RDS Database&lt;div&gt;(Primary)&lt;/div&gt;" style="sketch=0;points=[[0,0,0],[0.25,0,0],[0.5,0,0],[0.75,0,0],[1,0,0],[0,1,0],[0.25,1,0],[0.5,1,0],[0.75,1,0],[1,1,0],[0,0.25,0],[0,0.5,0],[0,0.75,0],[1,0.25,0],[1,0.5,0],[1,0.75,0]];outlineConnect=0;fontColor=#232F3E;fillColor=#C925D1;strokeColor=#ffffff;dashed=0;verticalLabelPosition=bottom;verticalAlign=top;align=center;html=1;fontSize=12;fontStyle=0;aspect=fixed;shape=mxgraph.aws4.resourceIcon;resIcon=mxgraph.aws4.rds;" vertex="1" parent="AOdpXRaZCRNr0EuxbCJd-12">
          <mxGeometry x="71.5" y="38.4" width="78" height="78" as="geometry" />
        </mxCell>
        <mxCell id="AOdpXRaZCRNr0EuxbCJd-15" value="" style="group" vertex="1" connectable="0" parent="1">
          <mxGeometry x="830" y="1400" width="230" height="160" as="geometry" />
        </mxCell>
        <mxCell id="AOdpXRaZCRNr0EuxbCJd-16" value="Private subnet" style="points=[[0,0],[0.25,0],[0.5,0],[0.75,0],[1,0],[1,0.25],[1,0.5],[1,0.75],[1,1],[0.75,1],[0.5,1],[0.25,1],[0,1],[0,0.75],[0,0.5],[0,0.25]];outlineConnect=0;gradientColor=none;html=1;whiteSpace=wrap;fontSize=12;fontStyle=0;container=1;pointerEvents=0;collapsible=0;recursiveResize=0;shape=mxgraph.aws4.group;grIcon=mxgraph.aws4.group_security_group;grStroke=0;strokeColor=#00A4A6;fillColor=#E6F6F7;verticalAlign=top;align=left;spacingLeft=30;fontColor=#147EBA;dashed=0;" vertex="1" parent="AOdpXRaZCRNr0EuxbCJd-15">
          <mxGeometry width="230" height="160" as="geometry" />
        </mxCell>
        <mxCell id="AOdpXRaZCRNr0EuxbCJd-17" value="RDS Database&lt;div&gt;(Secondary)&lt;/div&gt;" style="sketch=0;points=[[0,0,0],[0.25,0,0],[0.5,0,0],[0.75,0,0],[1,0,0],[0,1,0],[0.25,1,0],[0.5,1,0],[0.75,1,0],[1,1,0],[0,0.25,0],[0,0.5,0],[0,0.75,0],[1,0.25,0],[1,0.5,0],[1,0.75,0]];outlineConnect=0;fontColor=#232F3E;fillColor=#C925D1;strokeColor=#ffffff;dashed=0;verticalLabelPosition=bottom;verticalAlign=top;align=center;html=1;fontSize=12;fontStyle=0;aspect=fixed;shape=mxgraph.aws4.resourceIcon;resIcon=mxgraph.aws4.rds;" vertex="1" parent="AOdpXRaZCRNr0EuxbCJd-15">
          <mxGeometry x="71.5" y="38.4" width="78" height="78" as="geometry" />
        </mxCell>
        <mxCell id="5xEN8Zvacd1QNbbgDomi-28" value="Private subnet" style="points=[[0,0],[0.25,0],[0.5,0],[0.75,0],[1,0],[1,0.25],[1,0.5],[1,0.75],[1,1],[0.75,1],[0.5,1],[0.25,1],[0,1],[0,0.75],[0,0.5],[0,0.25]];outlineConnect=0;gradientColor=none;html=1;whiteSpace=wrap;fontSize=12;fontStyle=0;container=0;pointerEvents=0;collapsible=0;recursiveResize=0;shape=mxgraph.aws4.group;grIcon=mxgraph.aws4.group_security_group;grStroke=0;strokeColor=#00A4A6;fillColor=#E6F6F7;verticalAlign=top;align=left;spacingLeft=30;fontColor=#147EBA;dashed=0;" parent="1" vertex="1">
          <mxGeometry x="505" y="1190" width="230" height="150" as="geometry" />
        </mxCell>
        <mxCell id="AOdpXRaZCRNr0EuxbCJd-23" style="edgeStyle=orthogonalEdgeStyle;rounded=0;orthogonalLoop=1;jettySize=auto;html=1;entryX=0.5;entryY=0;entryDx=0;entryDy=0;entryPerimeter=0;" edge="1" parent="1" source="5xEN8Zvacd1QNbbgDomi-29" target="AOdpXRaZCRNr0EuxbCJd-14">
          <mxGeometry relative="1" as="geometry" />
        </mxCell>
        <mxCell id="5xEN8Zvacd1QNbbgDomi-29" value="&lt;span style=&quot;background-color: rgb(226, 242, 243);&quot;&gt;EC2 App Server&lt;/span&gt;" style="sketch=0;points=[[0,0,0],[0.25,0,0],[0.5,0,0],[0.75,0,0],[1,0,0],[0,1,0],[0.25,1,0],[0.5,1,0],[0.75,1,0],[1,1,0],[0,0.25,0],[0,0.5,0],[0,0.75,0],[1,0.25,0],[1,0.5,0],[1,0.75,0]];outlineConnect=0;fontColor=#232F3E;fillColor=#ED7100;strokeColor=#ffffff;dashed=0;verticalLabelPosition=bottom;verticalAlign=top;align=center;html=1;fontSize=12;fontStyle=0;aspect=fixed;shape=mxgraph.aws4.resourceIcon;resIcon=mxgraph.aws4.ec2;" parent="1" vertex="1">
          <mxGeometry x="581" y="1234" width="78" height="78" as="geometry" />
        </mxCell>
        <mxCell id="AOdpXRaZCRNr0EuxbCJd-34" value="" style="endArrow=none;html=1;rounded=0;entryX=0.5;entryY=1;entryDx=0;entryDy=0;entryPerimeter=0;" edge="1" parent="1" target="5xEN8Zvacd1QNbbgDomi-34">
          <mxGeometry width="50" height="50" relative="1" as="geometry">
            <mxPoint x="620" y="1350" as="sourcePoint" />
            <mxPoint x="590" y="1390" as="targetPoint" />
            <Array as="points">
              <mxPoint x="940" y="1350" />
            </Array>
          </mxGeometry>
        </mxCell>
        <mxCell id="5xEN8Zvacd1QNbbgDomi-34" value="&lt;span style=&quot;background-color: rgb(226, 242, 243);&quot;&gt;EC2 App Server&lt;/span&gt;" style="sketch=0;points=[[0,0,0],[0.25,0,0],[0.5,0,0],[0.75,0,0],[1,0,0],[0,1,0],[0.25,1,0],[0.5,1,0],[0.75,1,0],[1,1,0],[0,0.25,0],[0,0.5,0],[0,0.75,0],[1,0.25,0],[1,0.5,0],[1,0.75,0]];outlineConnect=0;fontColor=#232F3E;fillColor=#ED7100;strokeColor=#ffffff;dashed=0;verticalLabelPosition=bottom;verticalAlign=top;align=center;html=1;fontSize=12;fontStyle=0;aspect=fixed;shape=mxgraph.aws4.resourceIcon;resIcon=mxgraph.aws4.ec2;" parent="1" vertex="1">
          <mxGeometry x="901" y="1234" width="78" height="78" as="geometry" />
        </mxCell>
        <mxCell id="AOdpXRaZCRNr0EuxbCJd-36" style="edgeStyle=orthogonalEdgeStyle;rounded=0;orthogonalLoop=1;jettySize=auto;html=1;entryX=0;entryY=0.5;entryDx=0;entryDy=0;entryPerimeter=0;" edge="1" parent="1" source="AOdpXRaZCRNr0EuxbCJd-4" target="5xEN8Zvacd1QNbbgDomi-64">
          <mxGeometry relative="1" as="geometry" />
        </mxCell>
        <mxCell id="AOdpXRaZCRNr0EuxbCJd-37" value="" style="endArrow=none;dashed=1;html=1;rounded=0;startArrow=block;startFill=1;exitX=1;exitY=0.5;exitDx=0;exitDy=0;exitPerimeter=0;entryX=0;entryY=0.5;entryDx=0;entryDy=0;entryPerimeter=0;" edge="1" parent="1" source="AOdpXRaZCRNr0EuxbCJd-10" target="AOdpXRaZCRNr0EuxbCJd-14">
          <mxGeometry width="50" height="50" relative="1" as="geometry">
            <mxPoint x="345" y="1479.41" as="sourcePoint" />
            <mxPoint x="585" y="1479.41" as="targetPoint" />
          </mxGeometry>
        </mxCell>
        <mxCell id="AOdpXRaZCRNr0EuxbCJd-39" value="Replication" style="edgeLabel;html=1;align=center;verticalAlign=middle;resizable=0;points=[];" vertex="1" connectable="0" parent="AOdpXRaZCRNr0EuxbCJd-37">
          <mxGeometry x="-0.0141" y="1" relative="1" as="geometry">
            <mxPoint as="offset" />
          </mxGeometry>
        </mxCell>
        <mxCell id="AOdpXRaZCRNr0EuxbCJd-38" value="" style="endArrow=none;dashed=1;html=1;rounded=0;startArrow=block;startFill=1;exitX=0;exitY=0.5;exitDx=0;exitDy=0;exitPerimeter=0;entryX=1;entryY=0.5;entryDx=0;entryDy=0;entryPerimeter=0;" edge="1" parent="1" source="AOdpXRaZCRNr0EuxbCJd-17" target="AOdpXRaZCRNr0EuxbCJd-14">
          <mxGeometry width="50" height="50" relative="1" as="geometry">
            <mxPoint x="344" y="1487" as="sourcePoint" />
            <mxPoint x="592" y="1487" as="targetPoint" />
          </mxGeometry>
        </mxCell>
        <mxCell id="AOdpXRaZCRNr0EuxbCJd-40" value="Replication" style="edgeLabel;html=1;align=center;verticalAlign=middle;resizable=0;points=[];" vertex="1" connectable="0" parent="AOdpXRaZCRNr0EuxbCJd-38">
          <mxGeometry x="-0.0338" relative="1" as="geometry">
            <mxPoint x="-5" as="offset" />
          </mxGeometry>
        </mxCell>
      </root>
    </mxGraphModel>
  </diagram>
</mxfile>
